<svg width="83" height="137" viewBox="0 0 83 137" fill="none" xmlns="http://www.w3.org/2000/svg">
<path d="M51.9441 2.66357L30.9355 6.7131L2.16882 129.709L27.0221 134.033L51.9441 2.66357Z" fill="white"/>
<path d="M65.6521 79.1948L58.9926 35.405L51.9897 79.1948H65.6521Z" fill="white"/>
<path d="M68.5722 95.1289L49.2341 98.7999L51.5907 114.869L71.8299 116.947L68.5722 95.1289Z" fill="white"/>
<path d="M51.9441 2.66357L30.9355 6.7131L2.16882 129.709L27.0221 134.033L51.9441 2.66357Z" stroke="white" stroke-width="3"/>
<path d="M65.6521 79.1948L58.9926 35.405L51.9897 79.1948H65.6521Z" stroke="white" stroke-width="3"/>
<path d="M68.5722 95.1289L49.2341 98.7999L51.5907 114.869L71.8299 116.947L68.5722 95.1289Z" stroke="white" stroke-width="3"/>
<path d="M64.6124 8.51211L53.5588 2.67805L28.8428 134.047L45.0455 127.801L49.0962 98.9743L68.5944 95.0621L71.9585 116.751L80.5404 113.388L64.6124 8.51211Z" stroke="white" stroke-width="3"/>
</svg>
