<svg width="774" height="846" viewBox="0 0 774 846" fill="none" xmlns="http://www.w3.org/2000/svg">
<path d="M41.1503 16.0885L26.0604 31.256L71.4769 149.124L94.4564 138.716L41.1503 16.0885Z" fill="white"/>
<path d="M95.5403 71.6462L65.3981 39.191L84.2452 79.3329L95.5403 71.6462Z" fill="white"/>
<path d="M106.919 83.1765L92.9972 97.0912L103.986 109.05L121.887 99.3811L106.919 83.1765Z" fill="white"/>
<path d="M41.1503 16.0885L26.0604 31.256L71.4769 149.124L94.4564 138.716L41.1503 16.0885Z" stroke="white" stroke-width="3"/>
<path d="M95.5403 71.6462L65.3981 39.191L84.2452 79.3329L95.5403 71.6462Z" stroke="white" stroke-width="3"/>
<path d="M106.919 83.1765L92.9972 97.0912L103.986 109.05L121.887 99.3811L106.919 83.1765Z" stroke="white" stroke-width="3"/>
<path d="M54.9139 13.7963L42.4934 15.192L95.9698 137.703L105.851 123.424L92.9813 97.313L106.9 83.1088L121.883 99.1469L127.086 91.5382L54.9139 13.7963Z" stroke="white" stroke-width="3"/>
<path d="M732.559 16.0887L747.649 31.2562L702.232 149.124L679.253 138.716L732.559 16.0887Z" fill="white"/>
<path d="M678.169 71.6465L708.311 39.1913L689.464 79.3331L678.169 71.6465Z" fill="white"/>
<path d="M666.79 83.1768L680.712 97.0914L669.723 109.05L651.822 99.3814L666.79 83.1768Z" fill="white"/>
<path d="M732.559 16.0887L747.649 31.2562L702.232 149.124L679.253 138.716L732.559 16.0887Z" stroke="white" stroke-width="3"/>
<path d="M678.169 71.6465L708.311 39.1913L689.464 79.3331L678.169 71.6465Z" stroke="white" stroke-width="3"/>
<path d="M666.79 83.1768L680.712 97.0914L669.723 109.05L651.822 99.3814L666.79 83.1768Z" stroke="white" stroke-width="3"/>
<path d="M718.795 13.7965L731.216 15.1922L677.74 137.704L667.858 123.424L680.728 97.3132L666.81 83.109L651.826 99.1471L646.623 91.5384L718.795 13.7965Z" stroke="white" stroke-width="3"/>
<path d="M41.1503 829.622L26.0604 814.454L71.4769 696.587L94.4564 706.995L41.1503 829.622Z" fill="white"/>
<path d="M95.5403 774.064L65.3981 806.519L84.2452 766.378L95.5403 774.064Z" fill="white"/>
<path d="M106.919 762.534L92.9972 748.619L103.986 736.66L121.887 746.329L106.919 762.534Z" fill="white"/>
<path d="M41.1503 829.622L26.0604 814.454L71.4769 696.587L94.4564 706.995L41.1503 829.622Z" stroke="white" stroke-width="3"/>
<path d="M95.5403 774.064L65.3981 806.519L84.2452 766.378L95.5403 774.064Z" stroke="white" stroke-width="3"/>
<path d="M106.919 762.534L92.9972 748.619L103.986 736.66L121.887 746.329L106.919 762.534Z" stroke="white" stroke-width="3"/>
<path d="M54.9139 831.914L42.4934 830.518L95.9698 708.007L105.851 722.286L92.9813 748.397L106.9 762.602L121.883 746.564L127.086 754.172L54.9139 831.914Z" stroke="white" stroke-width="3"/>
<path d="M732.559 829.622L747.649 814.454L702.232 696.587L679.253 706.995L732.559 829.622Z" fill="white"/>
<path d="M678.169 774.064L708.311 806.519L689.464 766.378L678.169 774.064Z" fill="white"/>
<path d="M666.79 762.534L680.712 748.619L669.723 736.66L651.822 746.329L666.79 762.534Z" fill="white"/>
<path d="M732.559 829.622L747.649 814.454L702.232 696.587L679.253 706.995L732.559 829.622Z" stroke="white" stroke-width="3"/>
<path d="M678.169 774.064L708.311 806.519L689.464 766.378L678.169 774.064Z" stroke="white" stroke-width="3"/>
<path d="M666.79 762.534L680.712 748.619L669.723 736.66L651.822 746.329L666.79 762.534Z" stroke="white" stroke-width="3"/>
<path d="M718.795 831.914L731.216 830.518L677.74 708.007L667.858 722.286L680.728 748.397L666.81 762.602L651.826 746.564L646.623 754.172L718.795 831.914Z" stroke="white" stroke-width="3"/>
</svg>
