<svg width="50" height="39" viewBox="0 0 50 39" fill="none" xmlns="http://www.w3.org/2000/svg">
<path d="M42.3303 3.1592C39.1425 1.6966 35.7256 0.61944 32.1525 0.00272946C32.0879 -0.00977142 32.0233 0.0214807 31.9879 0.0798181C31.5482 0.861123 31.0607 1.88203 30.7211 2.68208C26.8771 2.10704 23.0539 2.10704 19.289 2.68208C18.9494 1.86328 18.4432 0.861123 18.0035 0.0798181C17.9681 0.0214807 17.9035 -0.00768794 17.8389 0.00272946C14.2679 0.617356 10.8509 1.69452 7.66114 3.1592C7.63405 3.16962 7.60905 3.19045 7.59447 3.21546C1.11276 12.8995 -0.664449 22.346 0.206446 31.6758C0.210613 31.7216 0.235615 31.7654 0.271034 31.7925C4.54842 34.9344 8.69038 36.8407 12.7573 38.1033C12.8219 38.1242 12.8907 38.0992 12.9323 38.045C13.8949 36.7324 14.7512 35.3469 15.4867 33.8905C15.5304 33.8051 15.4888 33.703 15.3992 33.6697C14.0387 33.153 12.7448 32.5238 11.4989 31.8112C11.401 31.7529 11.3927 31.6133 11.4822 31.5445C11.7448 31.3487 12.0073 31.1445 12.2573 30.9382C12.3031 30.9007 12.3656 30.8924 12.4198 30.9174C20.6037 34.6531 29.4627 34.6531 37.5487 30.9174C37.6028 30.8924 37.6653 30.8987 37.7133 30.9382C37.9633 31.1445 38.2258 31.3508 38.4904 31.5466C38.5821 31.6133 38.5758 31.755 38.4758 31.8133C37.2299 32.5404 35.9361 33.1572 34.5735 33.6697C34.4839 33.703 34.4464 33.8072 34.488 33.8926C35.2381 35.3469 36.0965 36.7324 37.0403 38.045C37.0799 38.1013 37.1507 38.1242 37.2153 38.1054C41.301 36.8407 45.4451 34.9344 49.7204 31.7946C49.7579 31.7675 49.7808 31.7258 49.785 31.68C50.8267 20.8938 48.039 11.5244 42.3928 3.21962C42.3823 3.19045 42.3573 3.16962 42.3303 3.1592ZM16.7097 25.9962C14.2449 25.9962 12.2156 23.7336 12.2156 20.9563C12.2156 18.179 14.2054 15.9164 16.7097 15.9164C19.2328 15.9164 21.2433 18.1978 21.2038 20.9563C21.2038 23.7357 19.212 25.9962 16.7097 25.9962ZM33.3255 25.9962C30.8628 25.9962 28.8314 23.7336 28.8314 20.9563C28.8314 18.179 30.8211 15.9164 33.3255 15.9164C35.8485 15.9164 37.8591 18.1978 37.8195 20.9563C37.8195 23.7357 35.8485 25.9962 33.3255 25.9962Z" fill="white"/>
</svg>
