<svg width="50" height="49" viewBox="0 0 50 49" fill="none" xmlns="http://www.w3.org/2000/svg">
<path fill-rule="evenodd" clip-rule="evenodd" d="M24.999 0C11.1933 0 0 11.1912 0 24.999C0 36.0443 7.1622 45.4148 17.0951 48.7209C18.3451 48.9521 18.8034 48.1792 18.8034 47.5189C18.8034 46.923 18.7805 44.9544 18.7701 42.8649C11.8162 44.3773 10.3475 39.915 10.3475 39.915C9.21003 37.0255 7.5726 36.2568 7.5726 36.2568C5.30395 34.7048 7.74343 34.7381 7.74343 34.7381C10.2537 34.9152 11.5745 37.3151 11.5745 37.3151C13.8036 41.1358 17.4222 40.0317 18.8492 39.3921C19.0742 37.7755 19.7221 36.6735 20.4366 36.0485C14.8848 35.4173 9.04754 33.2736 9.04754 23.6948C9.04754 20.9658 10.0246 18.7346 11.6245 16.9847C11.3641 16.3535 10.5079 13.8119 11.8662 10.3683C11.8662 10.3683 13.9661 9.69751 18.743 12.9307C20.7366 12.3766 22.874 12.0995 24.999 12.0891C27.1239 12.0995 29.2634 12.3766 31.2612 12.9307C36.0318 9.69543 38.1297 10.3683 38.1297 10.3683C39.49 13.8119 38.6338 16.3535 38.3755 16.9847C39.9775 18.7346 40.9483 20.9658 40.9483 23.6948C40.9483 33.2965 35.1006 35.411 29.5342 36.0297C30.43 36.8047 31.2299 38.3276 31.2299 40.6587C31.2299 44.0044 31.2008 46.696 31.2008 47.5189C31.2008 48.1834 31.6508 48.9646 32.9174 48.7188C42.8461 45.4085 50 36.0422 50 25.001C49.9979 11.1933 38.8046 0 24.999 0Z" fill="white"/>
<path d="M9.46839 35.8943C9.41423 36.0193 9.21839 36.0568 9.03923 35.9714C8.85798 35.8902 8.75589 35.7193 8.81423 35.5964C8.86839 35.4693 9.06423 35.4339 9.24548 35.5194C9.42673 35.5985 9.53089 35.7693 9.46839 35.8943Z" fill="white"/>
<path d="M10.4809 37.0235C10.3621 37.1339 10.1288 37.0818 9.97045 36.9089C9.80587 36.7339 9.7767 36.5006 9.89753 36.3901C10.0204 36.2797 10.2455 36.3318 10.41 36.5068C10.5746 36.6797 10.6059 36.911 10.4809 37.0235Z" fill="white"/>
<path d="M11.4662 38.463C11.3121 38.5692 11.0621 38.4692 10.9079 38.2484C10.7537 38.0255 10.7537 37.7588 10.9121 37.6526C11.0662 37.5463 11.3141 37.6422 11.4704 37.863C11.6225 38.088 11.6225 38.3547 11.4662 38.463Z" fill="white"/>
<path d="M12.8161 39.8546C12.6786 40.0067 12.387 39.965 12.1745 39.7588C11.9557 39.5567 11.8953 39.2713 12.0328 39.1192C12.1724 38.9671 12.4661 39.0109 12.6807 39.215C12.8974 39.4171 12.962 39.7046 12.8161 39.8546Z" fill="white"/>
<path d="M14.6807 40.6608C14.6203 40.8567 14.339 40.9462 14.0557 40.8629C13.7723 40.7775 13.5869 40.5483 13.6453 40.3504C13.7036 40.1525 13.9869 40.0608 14.2723 40.1504C14.5536 40.2337 14.739 40.4629 14.6807 40.6608Z" fill="white"/>
<path d="M16.7264 40.8108C16.7327 41.0171 16.4931 41.1879 16.1952 41.1921C15.8973 41.1983 15.6535 41.0317 15.6514 40.8296C15.6514 40.6212 15.8868 40.4525 16.1848 40.4462C16.4827 40.44 16.7264 40.6067 16.7264 40.8108Z" fill="white"/>
<path d="M18.6305 40.4879C18.666 40.6879 18.4597 40.8962 18.1639 40.9504C17.8743 41.0046 17.6055 40.8796 17.568 40.6796C17.5326 40.4733 17.743 40.2671 18.0326 40.2129C18.3264 40.1608 18.593 40.2816 18.6305 40.4879Z" fill="white"/>
</svg>
