<svg width="50" height="43" viewBox="0 0 50 43" fill="none" xmlns="http://www.w3.org/2000/svg">
<path d="M47.9207 41.2543H48.3936L47.4874 39.8835C48.0415 39.8835 48.3353 39.5314 48.3394 39.1002C48.3394 39.0835 48.3394 39.0647 48.3374 39.0481C48.3374 38.4606 47.9832 38.1793 47.2561 38.1793H46.0811V41.2543H46.5228V39.9147H47.0665L47.9207 41.2543ZM47.0353 39.5668H46.5228V38.5272H47.1728C47.5082 38.5272 47.8915 38.5814 47.8915 39.021C47.8915 39.5252 47.5061 39.5668 47.0353 39.5668Z" fill="white"/>
<path d="M36.0228 36.0231H29.7582V26.2127C29.7582 23.8731 29.7166 20.8627 26.4999 20.8627C23.2374 20.8627 22.7374 23.4106 22.7374 26.044V36.0231H16.4749V15.8482H22.4895V18.6044H22.5728C23.7999 16.5086 26.0791 15.2565 28.5062 15.3461C34.8561 15.3461 36.0249 19.5231 36.0249 24.9544L36.0228 36.0231ZM9.40622 13.0898C7.39789 13.0898 5.77081 11.4627 5.77081 9.45442C5.77081 7.44609 7.39789 5.81902 9.40622 5.81902C11.4145 5.81902 13.0416 7.44609 13.0416 9.45442C13.0416 11.4627 11.4145 13.0898 9.40622 13.0898ZM12.5375 36.0231H6.26665V15.8482H12.5375V36.0231ZM39.1457 0.00236789H3.11874C1.41666 -0.016382 0.0208333 1.3482 0 3.05027V39.2252C0.0208333 40.9293 1.41666 42.2939 3.11874 42.2751H39.1457C40.852 42.296 42.254 40.9314 42.2769 39.2252V3.04819C42.2519 1.34195 40.8499 -0.0226321 39.1457 0.000284469" fill="white"/>
<path d="M47.0894 36.8106C45.4978 36.8252 44.2186 38.1293 44.2353 39.721C44.2499 41.3127 45.554 42.5918 47.1457 42.5752C48.7374 42.5606 50.0165 41.2564 49.9999 39.6647C49.9853 38.0939 48.7144 36.8252 47.1457 36.8106H47.0894ZM47.1561 42.2439C45.7603 42.2668 44.5436 41.1564 44.5207 39.7606C44.4978 38.3647 45.6103 37.2147 47.0061 37.1918C48.4019 37.1689 49.5519 38.2814 49.5749 39.6772C49.5749 39.6918 49.5749 39.7043 49.5749 39.7189C49.604 41.0835 48.5207 42.2147 47.1561 42.2439H47.0915Z" fill="white"/>
</svg>
