<svg width="75" height="110" viewBox="0 0 75 110" fill="none" xmlns="http://www.w3.org/2000/svg">
<path d="M39.583 22.1251L27.2167 59.6732C22.3927 59.6732 19.0504 54.8594 20.7363 50.3396L34.1493 14.3791L40.4886 14.3791L39.583 22.1251ZM49.8571 59.6732L37.4595 22.1251L36.4602 14.3791L42.862 14.3791L56.3526 50.3481C58.0458 54.8626 54.695 59.6732 49.8571 59.6732ZM49.295 42.8123V50.1229H25.2805V42.8123H49.295Z" fill="white"/>
<path fill-rule="evenodd" clip-rule="evenodd" d="M3.34098e-06 0H74.0523V74.0523L74.0523 90.5711C74.0523 91.5449 73.2629 92.3343 72.2891 92.3343C71.3154 92.3343 70.526 91.5449 70.526 90.5711V74.0523H67.5817V77.2876C67.5817 78.2802 66.777 79.085 65.7843 79.085C64.7916 79.085 63.9869 78.2803 63.9869 77.2876V74.0523H59.9472V88.808C59.9472 90.7555 58.3684 92.3343 56.4209 92.3343C54.4733 92.3343 52.8946 90.7555 52.8946 88.808V74.0523H46.0131V93.8235C46.0131 94.8162 45.2084 95.6209 44.2157 95.6209C43.223 95.6209 42.4183 94.8162 42.4183 93.8235V74.0523H39.5425V80.1634C39.5425 81.1561 38.7378 81.9608 37.7451 81.9608C36.7524 81.9608 35.9477 81.1561 35.9477 80.1634V74.0523H31.634V97.7778C31.634 99.7631 30.0246 101.373 28.0392 101.373C26.0539 101.373 24.4444 99.7631 24.4444 97.7778V74.0523H19.4118V89.5098C19.4118 90.8995 18.2852 92.0261 16.8954 92.0261C15.5057 92.0261 14.3791 90.8995 14.3791 89.5098V74.0523H8.62745V105.686C8.62745 108.069 6.69613 110 4.31373 110C1.93132 110 0 108.069 0 105.686V71.1765L3.34098e-06 0ZM7.18954 7.18954H67.5817V67.5817H7.18954V7.18954Z" fill="white"/>
</svg>
