<svg width="50" height="50" viewBox="0 0 50 50" fill="none" xmlns="http://www.w3.org/2000/svg">
<path fill-rule="evenodd" clip-rule="evenodd" d="M25 0C10.9167 0 0 10.3167 0 24.25C0 31.5375 2.9875 37.8375 7.85208 42.1875C8.26042 42.5521 8.50625 43.0646 8.525 43.6125L8.66042 48.0583C8.70417 49.4771 10.1687 50.4 11.4667 49.8271L16.4292 47.6375C16.85 47.4521 17.3208 47.4188 17.7646 47.5396C20.0438 48.1667 22.4708 48.5 25 48.5C39.0833 48.5 50 38.1833 50 24.25C50 10.3167 39.0833 0 25 0ZM40.0125 18.6583L32.6687 30.3104C31.5 32.1646 28.9979 32.625 27.2458 31.3104L21.4042 26.9292C20.8687 26.5271 20.1312 26.5292 19.5979 26.9354L11.7083 32.9208C10.6562 33.7188 9.28125 32.4604 9.98542 31.3417L17.3292 19.6896C18.4979 17.8354 21 17.375 22.7521 18.6896L28.5937 23.0708C29.1292 23.4729 29.8667 23.4708 30.4 23.0646L38.2896 17.0792C39.3437 16.2813 40.7167 17.5396 40.0125 18.6583Z" fill="white"/>
</svg>
