<svg width="54" height="54" viewBox="0 0 54 54" fill="none" xmlns="http://www.w3.org/2000/svg">
<path d="M51.9795 2.40747C51.1801 1.59855 50.1857 1.00943 49.0922 0.697026C47.9986 0.384625 46.843 0.359505 45.737 0.624094L10.0656 8.13657C8.01131 8.41827 6.07648 9.26785 4.479 10.5896C2.88153 11.9114 1.68484 13.6529 1.02372 15.618C0.362604 17.5831 0.263305 19.6937 0.73701 21.7121C1.21071 23.7306 2.23861 25.5767 3.70493 27.0426L7.53515 30.8702C7.74245 31.0774 7.90685 31.3235 8.01894 31.5943C8.13103 31.8651 8.18861 32.1554 8.18838 32.4485V39.5106C8.1933 40.5036 8.4219 41.4827 8.85722 42.3752L8.83938 42.3908L8.89735 42.4488C9.55061 43.7621 10.6176 44.8242 11.9339 45.4716L11.9918 45.5295L12.0074 45.5117C12.9 45.947 13.8792 46.1756 14.8723 46.1805H21.9352C22.5262 46.18 23.0931 46.4141 23.5115 46.8314L27.3395 50.659C28.3662 51.697 29.5882 52.5215 30.9351 53.0851C32.282 53.6486 33.7271 53.9401 35.1872 53.9426C36.4039 53.9411 37.6123 53.7424 38.7654 53.3541C40.7128 52.7148 42.4426 51.544 43.76 49.974C45.0773 48.4039 45.9296 46.497 46.2208 44.4684L53.7452 8.72286C54.0235 7.60745 54.0071 6.43884 53.6976 5.33168C53.388 4.22452 52.796 3.21683 51.9795 2.40747ZM10.6921 27.7225L6.85962 23.8949C5.96721 23.0241 5.34174 21.9168 5.05662 20.703C4.77151 19.4893 4.83857 18.2193 5.24995 17.0423C5.64879 15.8348 6.38609 14.7672 7.37417 13.9666C8.36225 13.1659 9.55953 12.6659 10.8236 12.5259L46.1405 5.09145L12.6428 38.59V32.4485C12.6462 31.5709 12.4755 30.7014 12.1407 29.8902C11.8059 29.079 11.3135 28.3422 10.6921 27.7225ZM41.8399 43.706C41.6687 44.9373 41.1577 46.0965 40.3642 47.0535C39.5707 48.0105 38.5262 48.7275 37.3478 49.1238C36.1694 49.5202 34.9039 49.5803 33.6933 49.2975C32.4826 49.0146 31.3748 48.3999 30.4941 47.5225L26.6595 43.6882C26.0405 43.0659 25.3043 42.5725 24.4934 42.2365C23.6825 41.9006 22.813 41.7287 21.9352 41.7309H15.7931L49.2952 8.24357L41.8399 43.706Z" fill="#5FC9F8"/>
</svg>
