<svg width="50" height="51" viewBox="0 0 50 51" fill="none" xmlns="http://www.w3.org/2000/svg">
<path fill-rule="evenodd" clip-rule="evenodd" d="M42.7172 7.30165C38.0155 2.59577 31.7647 0.00209336 25.1057 0C11.3837 0 0.215616 11.166 0.209336 24.8943C0.207243 29.282 1.35441 33.565 3.5336 37.3414L0 50.2407L13.1966 46.7783C16.8327 48.7628 20.9274 49.8074 25.0932 49.8095H25.1036C38.8235 49.8095 49.9937 38.6414 50 24.9131C50.0042 18.2625 47.4168 12.0054 42.7172 7.30165ZM25.1057 45.6039H25.0973C21.3837 45.6039 17.7434 44.6054 14.5656 42.7193L13.8099 42.2713L5.97865 44.3249L8.06992 36.6883L7.57798 35.9054C5.50555 32.6104 4.41281 28.8026 4.4149 24.8943C4.41909 13.4855 13.7032 4.20347 25.1162 4.20347C30.6427 4.20347 35.8384 6.35964 39.7446 10.27C43.6508 14.1825 45.8007 19.3804 45.7986 24.9089C45.7923 36.322 36.5104 45.6039 25.1057 45.6039ZM36.4559 30.1068C35.8342 29.7948 32.7758 28.2897 32.2043 28.0825C31.6349 27.8752 31.2204 27.7706 30.8038 28.3923C30.3873 29.014 29.1982 30.4166 28.834 30.8332C28.4718 31.2476 28.1076 31.3 27.4859 30.9881C26.8641 30.6762 24.8587 30.0209 22.4827 27.9004C20.6343 26.2508 19.3845 24.2139 19.0224 23.5901C18.6602 22.9663 18.9847 22.6314 19.2945 22.3215C19.575 22.0431 19.9163 21.5951 20.2282 21.2309C20.5422 20.8708 20.6448 20.6113 20.8541 20.1947C21.0613 19.7802 20.9588 19.4159 20.8018 19.104C20.6448 18.7942 19.4013 15.7316 18.8842 14.4861C18.3797 13.2719 17.8669 13.4373 17.4838 13.4185C17.1216 13.3996 16.7071 13.3975 16.2906 13.3975C15.8761 13.3975 15.202 13.5524 14.6326 14.1763C14.0632 14.8001 12.4555 16.3052 12.4555 19.3657C12.4555 22.4283 14.6849 25.3862 14.9948 25.8007C15.3046 26.2152 19.3804 32.4995 25.6207 35.1936C27.1049 35.8342 28.2646 36.2173 29.1668 36.5041C30.6573 36.9772 32.0138 36.9102 33.0856 36.7511C34.2809 36.5732 36.7657 35.246 37.2849 33.7932C37.8041 32.3404 37.8041 31.0927 37.6471 30.8352C37.4921 30.5736 37.0777 30.4187 36.4559 30.1068Z" fill="white"/>
</svg>
